#!OML:ASF E:/inclinewalkrobotboard/Project1/Captureday1/Session1/subject1.ASF
:FULLY-SPECIFIED
:DEGREES
376
root 0 0 0 1.3830920637336686 -8.735254218000653 0.9208399418875678
lowerback 1.431461084452681 -1.2616871913441146 -2.9469393018254317
upperback -1.0737945687702335 -1.5554880407867413 2.2241190686400985
thorax -1.682506358434825 -0.7571679161426875 3.9292931672151656
lowerneck -26.379755201589646 -1.8813813093634386 -7.215096963466508
upperneck 12.08075101535113 -0.7136805421081037 4.565441844254863
head 8.04174476438865 -0.18988257903227834 2.623048864449779
rclavicle -7.003946977634783E-15 -1.7338440686215782E-15
rhumerus -31.3537205599733 -1.346313977204268 -80.93711709789794
rradius 30.8719205559927
rwrist 17.75279768830596
rhand -18.451224574288 9.930599745897803
rfingers 7.125019999999955
rthumb 7.837580313075121 -19.904299414748188
lclavicle -2.485994643250572E-15 -7.657579634885438E-16
lhumerus -10.547806073143828 9.130368891901792 89.48875608209472
lradius 59.85754328001237
lwrist -5.137135863908381
lhand -33.56625893751798 17.269713834860553
lfingers 7.125020000000008
lthumb -6.75473703643341 46.90601600092118
rfemur 13.411608513874134 6.661658150956713 33.19723721105534
rtibia 36.27030896402058
rfoot -13.135600176480729 -2.7354324522637885
rtoes -5.7161853847297905
lfemur -30.553643516784913 -4.44199566994298 -9.845965147229645
ltibia 23.895720803249418
lfoot -4.382191306104809 3.189679310127498
ltoes -1.42945991386153
377
root 0 0 0 1.3835989494770065 -8.750089506361117 0.9204342623453566
lowerback 1.4041902203872068 -1.2608685343011674 -2.953108255829722
upperback -1.087339045482172 -1.554769990810846 2.2203903905242424
thorax -1.6808644781905682 -0.7564473971964375 3.9295949904399454
lowerneck -26.339088546897322 -1.8783455368361999 -7.2304346229820915
upperneck 12.192615612435247 -0.7051681946291563 4.559759039529454
head 8.079083035264064 -0.19238509925301728 2.6265174794686335
rclavicle -7.670014335539434E-15 -1.5659282491226795E-15
rhumerus -31.38131976044302 -1.44587922883679 -80.90824491827678
rradius 30.842191713346573
rwrist 17.754055656641505
rhand -18.43270566210341 9.944460786692897
rfingers 7.125019999999954
rthumb 7.855194454336497 -19.892693017452345
lclavicle -2.8943385574375122E-15 -7.141753395613154E-16
lhumerus -10.151198717597683 9.420552867672779 89.25314062479468
lradius 59.89849664580606
lwrist -5.2540118827212785
lhand -33.63394619529038 17.229941320650145
lfingers 7.125020000000008
lthumb -6.818961015765402 46.861348882072434
rfemur 9.525071174776121 4.91711669296358 30.862857015252413
rtibia 45.68306308054235
rfoot -6.315163117433852 -0.5519441264111564
rtoes -3.2123461338805646
lfemur -27.57146403122435 -4.557386369646739 -11.799017025625274
ltibia 25.022182152013837
lfoot -3.312573649449014 1.291050828155961
ltoes 0.5610768483339683
378
root 0 0 0 1.3863568620555489 -8.76300241126859 0.9258658694995886
lowerback 1.3911077015167899 -1.2650469095026986 -2.9563726837077993
upperback -1.0889884182595853 -1.5610857967463447 2.220955929109939
thorax -1.6747874516805017 -0.7592089563632752 3.932006099849912
lowerneck -26.381924351422498 -1.8810410453410449 -7.2329408600434375
upperneck 12.169899868798371 -0.7025621931683036 4.559366867607059
head 8.078202110140342 -0.19129666495098196 2.6266803546691624
rclavicle -7.595175279862317E-15 -1.5106505551726715E-15
rhumerus -31.471671851503757 -1.8417526726643878 -80.85088866484053
rradius 30.762154185160153
rwrist 17.776513412989214
rhand -18.35598016501102 9.97223919432728
rfingers 7.125019999999951
rthumb 7.9286445938335 -19.86473810566177
lclavicle -2.9431017074919163E-15 -7.860701507440587E-16
lhumerus -9.907627880814761 9.65959976235106 89.14549807481765
lradius 59.91345809344169
lwrist -5.343415556750369
lhand -33.68025693203407 17.188634765004842
lfingers 7.125020000000009
lthumb -6.863184818296373 46.81611226740985
rfemur 0.033974725749942536 2.926747666121706 27.88831394518526
rtibia 56.47022760669791
rfoot 2.689176452011031 0.692648467156106
rtoes 3.5225234385196873
lfemur -22.77167035343602 -4.307702725925118 -15.078675462163563
ltibia 28.481750467551507
lfoot -1.646508038427239 -2.0144822332776218
ltoes 3.790471335521609
379
root 0 0 0 1.3986958395713511 -8.769624378272793 0.9431451702894929
lowerback 1.3949631366436472 -1.2767428625389328 -2.959676065067897
upperback -1.0707773619495 -1.577888278844443 2.228387552360062
thorax -1.6573019502881066 -0.767249703817453 3.940978665677218
lowerneck -26.559969158158744 -1.898691643812985 -7.224889846561689
upperneck 11.905720706436028 -0.7211999125763462 4.587268055250642
head 8.006922178208628 -0.18658740436304325 2.628187858454712
rclavicle -6.8387913682494315E-15 -1.3176928073765005E-15
rhumerus -31.701071778077225 -2.758951100942162 -80.70706512305594
rradius 30.568652889222083
rwrist 17.88869412014184
rhand -18.167622160951247 10.010339654289348
rfingers 7.125019999999948
rthumb 8.109044672505831 -19.819188430006907
lclavicle -2.8285339142468425E-15 -9.26797846262743E-16
lhumerus -9.993245270925524 9.687095677647427 89.24829404579557
lradius 59.88051937979001
lwrist -5.335775634528981
lhand -33.66723168003912 17.175972502244523
lfingers 7.125020000000009
lthumb -6.85084149764755 46.8032952472588
rfemur -9.257287668434405 1.6870835641572954 25.222648993963997
rtibia 64.06779333579404
rfoot 5.837704440688425 -1.4190935805745961
rtoes 9.094180239628772
lfemur -18.100305290547244 -3.5387226905099443 -18.198891405971352
ltibia 31.472977311477173
lfoot -0.8926511653994442 -4.205745120114624
ltoes 6.24184408692151
